<?xml version="1.0" encoding="utf-8"?>
<!-- Generator: Adobe Illustrator 16.0.0, SVG Export Plug-In . SVG Version: 6.00 Build 0)  -->
<!DOCTYPE svg PUBLIC "-//W3C//DTD SVG 1.1//EN" "http://www.w3.org/Graphics/SVG/1.1/DTD/svg11.dtd">
<svg version="1.1" id="Layer_1" xmlns="http://www.w3.org/2000/svg" xmlns:xlink="http://www.w3.org/1999/xlink" x="0px" y="0px"
	 width="50px" height="10px" viewBox="0 0 50 10" enable-background="new 0 0 50 10" xml:space="preserve">
<path fill="#FDFCFC" d="M6.189,6.958C5.747,7.212,5.198,7.339,4.542,7.339c-0.728,0-1.302-0.2-1.721-0.604
	C2.402,6.332,2.192,5.779,2.192,5.071c0-0.711,0.229-1.291,0.687-1.738C3.338,2.884,3.948,2.661,4.71,2.661
	c0.479,0,0.902,0.066,1.268,0.199v0.956C5.629,3.613,5.201,3.513,4.697,3.513c-0.423,0-0.767,0.137-1.034,0.412
	c-0.266,0.274-0.399,0.641-0.399,1.1c0,0.464,0.12,0.825,0.359,1.081C3.862,6.359,4.184,6.486,4.59,6.486
	c0.244,0,0.437-0.034,0.581-0.104V5.496H4.264V4.683h1.925V6.958z"/>
<path fill="#FDFCFC" d="M10.697,7.259H9.526L8.822,6.098C8.77,6.01,8.719,5.93,8.671,5.861c-0.049-0.07-0.098-0.131-0.147-0.18
	C8.475,5.632,8.423,5.593,8.37,5.568C8.316,5.541,8.257,5.529,8.195,5.529H7.92v1.729H6.9V2.736h1.616
	c1.098,0,1.646,0.41,1.646,1.23c0,0.158-0.024,0.303-0.072,0.437c-0.049,0.134-0.117,0.254-0.206,0.361
	c-0.087,0.109-0.194,0.2-0.318,0.278C9.441,5.121,9.3,5.181,9.147,5.226v0.012C9.215,5.259,9.28,5.294,9.343,5.341
	c0.063,0.047,0.124,0.102,0.183,0.166C9.585,5.57,9.641,5.636,9.695,5.71c0.054,0.072,0.103,0.144,0.146,0.213L10.697,7.259z
	 M7.92,3.5v1.259h0.441c0.219,0,0.395-0.064,0.526-0.189C9.024,4.441,9.09,4.283,9.09,4.093C9.09,3.698,8.854,3.5,8.38,3.5H7.92z"/>
<path fill="#FDFCFC" d="M13.665,7.259h-2.713V2.736h2.609v0.83H11.97v1.007h1.479v0.825H11.97v1.038h1.694L13.665,7.259
	L13.665,7.259z"/>
<path fill="#FDFCFC" d="M16.936,7.327h-2.714V2.803h2.609v0.83h-1.59v1.006h1.479v0.827h-1.479v1.033h1.694L16.936,7.327
	L16.936,7.327z"/>
<path fill="#FDFCFC" d="M21.696,7.259h-1.027l-1.865-2.841c-0.109-0.166-0.185-0.291-0.227-0.375h-0.013
	c0.017,0.161,0.024,0.405,0.024,0.733V7.26h-0.962V2.736h1.098l1.796,2.755c0.082,0.123,0.157,0.245,0.227,0.368h0.013
	c-0.017-0.104-0.025-0.313-0.025-0.623V2.736h0.962L21.696,7.259L21.696,7.259z"/>
<g>
	<path fill="#FDFCFC" d="M26.363,7.063c-0.211,0.104-0.631,0.217-1.171,0.217C23.941,7.277,23,6.48,23,5.027
		c0-1.389,0.941-2.331,2.317-2.331c0.553,0,0.902,0.118,1.054,0.198l-0.139,0.467c-0.219-0.105-0.527-0.185-0.896-0.185
		c-1.04,0-1.731,0.666-1.731,1.831c0,1.089,0.626,1.785,1.706,1.785c0.349,0,0.703-0.071,0.935-0.187L26.363,7.063z"/>
	<path fill="#FDFCFC" d="M27.607,5.811l-0.461,1.396h-0.592l1.508-4.437h0.69l1.515,4.437h-0.611l-0.475-1.396H27.607z
		 M29.063,5.363l-0.436-1.277c-0.098-0.29-0.162-0.553-0.229-0.81h-0.015c-0.065,0.263-0.139,0.533-0.225,0.804l-0.435,1.283H29.063
		z"/>
	<path fill="#FDFCFC" d="M31.105,3.256h-1.353V2.769h3.285v0.487h-1.354v3.95h-0.578V3.256z"/>
	<path fill="#FDFCFC" d="M35.68,5.125h-1.725v1.6h1.924v0.48h-2.496V2.769h2.396v0.48h-1.824v1.402h1.725V5.125z"/>
	<path fill="#FDFCFC" d="M36.471,2.828c0.289-0.059,0.705-0.092,1.1-0.092c0.613,0,1.009,0.112,1.285,0.362
		c0.224,0.198,0.349,0.5,0.349,0.843c0,0.586-0.367,0.975-0.836,1.133v0.02c0.342,0.119,0.547,0.434,0.651,0.896
		c0.146,0.618,0.25,1.046,0.342,1.218H38.77c-0.074-0.131-0.172-0.508-0.297-1.061c-0.133-0.611-0.369-0.841-0.889-0.861h-0.541
		v1.921h-0.572V2.828z M37.043,4.849h0.588c0.611,0,1-0.336,1-0.842c0-0.573-0.416-0.824-1.021-0.83
		c-0.274,0-0.473,0.026-0.565,0.053L37.043,4.849L37.043,4.849z"/>
	<path fill="#FDFCFC" d="M42.16,5.125h-1.725v1.6h1.922v0.48h-2.494V2.769h2.395v0.48h-1.822v1.402h1.726L42.16,5.125L42.16,5.125z"
		/>
	<path fill="#FDFCFC" d="M42.949,2.828c0.291-0.059,0.705-0.092,1.1-0.092c0.613,0,1.008,0.112,1.285,0.362
		c0.225,0.198,0.35,0.5,0.35,0.843c0,0.586-0.369,0.975-0.838,1.133v0.02c0.344,0.119,0.547,0.434,0.652,0.896
		c0.146,0.618,0.25,1.046,0.344,1.218h-0.594c-0.072-0.131-0.172-0.508-0.297-1.061c-0.131-0.611-0.369-0.841-0.889-0.861h-0.539
		v1.921h-0.574V2.828z M43.523,4.849h0.586c0.611,0,1-0.336,1-0.842c0-0.573-0.414-0.824-1.021-0.83
		c-0.276,0-0.475,0.026-0.565,0.053V4.849z"/>
	<path fill="#FDFCFC" d="M46.262,6.509c0.258,0.158,0.633,0.289,1.027,0.289c0.586,0,0.928-0.309,0.928-0.757
		c0-0.415-0.236-0.651-0.836-0.883c-0.723-0.256-1.17-0.631-1.17-1.256c0-0.691,0.572-1.205,1.434-1.205
		c0.455,0,0.785,0.105,0.982,0.217l-0.158,0.468c-0.146-0.079-0.441-0.21-0.844-0.21c-0.605,0-0.836,0.362-0.836,0.665
		c0,0.415,0.271,0.62,0.883,0.856c0.75,0.29,1.133,0.652,1.133,1.305c0,0.684-0.508,1.283-1.555,1.283
		c-0.428,0-0.896-0.131-1.133-0.289L46.262,6.509z"/>
</g>
</svg>
